<svg fill="none" height="16" viewBox="0 0 16 16" width="16" xmlns="http://www.w3.org/2000/svg"><path d="m14.448 1.97573c.384.37617.6694.79674.856 1.26172.1867.46498.28.94302.28 1.43412s-.0933.96914-.28 1.43412c-.1866.46498-.472.88555-.856 1.26172l-6.12796 5.95589c-.384.3762-.856.6897-1.416.9404-.56.2508-1.152.3971-1.776.4389s-1.26134-.0418-1.912-.2508c-.65067-.209-1.25334-.5851-1.808-1.1285-.544002-.5329-.922669-1.1102-1.136002-1.7319-.2133336-.6217-.2986669-1.2408-.2560002-1.8573.0426666-.61649.1893332-1.19641.4400002-1.73975.250666-.54335.568002-1.00311.952002-1.37927l5.44-5.28196c.096-.09404.23733-.11755.424-.07053.18666.04702.328.11755.424.21159.08533.09404.15466.23249.208.41535.05333.18286.032.32131-.064.41535l-5.424 5.26628c-.288.28213-.528.61127-.72.98743-.192.37617-.304.77845-.336 1.20686-.032.42845.032.86205.192 1.30085.16.4389.448.8621.864 1.2696.37333.3657.78666.6243 1.24.7758.45333.1515.904.2142 1.352.1881s.87466-.1228 1.28-.2899c.40533-.1672.752-.3919 1.04-.674l6.11196-5.94025c.288-.28212.4934-.57469.616-.87771.1227-.30302.1814-.60343.176-.90123-.0053-.29779-.0773-.58775-.216-.86987-.1386-.28213-.3306-.54335-.576-.78368-.4586-.43885-.9733-.64522-1.544-.6191-.5706.02612-1.144.32131-1.72.88555l-5.51996 5.376c-.24534.24033-.36534.50678-.36.79935.00533.29257.104.5329.296.72094.23466.2299.504.324.808.2822s.552-.1568.744-.3449l5.00796-4.8744c.096-.09404.2374-.11756.424-.07053.1867.04702.328.11755.424.21159s.1707.23249.224.41534c.0534.18286.032.32131-.064.41535l-5.02396 4.87445c-.384.3762-.752.6374-1.104.7837s-.68267.2116-.992.1959c-.30934-.0157-.59734-.0967-.864-.2429-.26667-.1463-.512-.324-.736-.5329-.18134-.1672-.344-.3814-.488-.6427-.144-.2612-.22667-.5485-.248-.862-.02134-.31347.03466-.64783.168-1.0031.13333-.35526.392-.71575.776-1.08147.192-.18808.36266-.36049.512-.51722.128-.13584.248-.256.36-.36049s.17333-.16196.184-.17241l4.464-4.35723c.384-.37616.80267-.67134 1.25596-.88555.4534-.2142.9147-.33698 1.384-.368325.4694-.031346.9307.031345 1.384.188085.4534.15673.872.42318 1.256.79934z" fill="#6d7a85"/></svg>