<?xml version="1.0" standalone="no"?><!DOCTYPE svg PUBLIC "-//W3C//DTD SVG 1.1//EN" "http://www.w3.org/Graphics/SVG/1.1/DTD/svg11.dtd"><svg t="1761705710611" class="icon" viewBox="0 0 1024 1024" version="1.1" xmlns="http://www.w3.org/2000/svg" p-id="5868" xmlns:xlink="http://www.w3.org/1999/xlink" width="200" height="200"><path d="M426.666667 384V128H341.333333v213.333333H128v85.333334h256a42.666667 42.666667 0 0 0 42.666667-42.666667zM341.333333 896h85.333334v-256a42.666667 42.666667 0 0 0-42.666667-42.666667H128v85.333334h213.333333v213.333333z m554.666667-298.666667h-256a42.666667 42.666667 0 0 0-42.666667 42.666667v256h85.333334v-213.333333h213.333333v-85.333334z m0-256h-213.333333V128h-85.333334v256a42.666667 42.666667 0 0 0 42.666667 42.666667h256V341.333333z" fill="" p-id="5869"></path></svg>